<?xml version="1.0" encoding="UTF-8" standalone="no"?>
<!-- Created with Inkscape (http://www.inkscape.org/) -->

<svg
   width="80.008278mm"
   height="30.575073mm"
   viewBox="0 0 80.008278 30.575073"
   version="1.1"
   id="svg1"
   xmlns="http://www.w3.org/2000/svg"
   xmlns:svg="http://www.w3.org/2000/svg">
  <defs
     id="defs1" />
  <g
     id="layer1"
     transform="translate(-11.035346,-142.83372)">
    <g
       id="g24"
       transform="matrix(0.97442279,0,0,0.97442279,-64.209058,-8.9213424)">
      <g
         id="g22"
         transform="matrix(0.71131059,0,0,0.71131059,55.579683,41.639629)">
        <g
           id="g11"
           transform="rotate(30,61.692418,158.28834)">
          <g
             id="g6"
             transform="matrix(3.7978482,-3.7978482,3.7978482,3.7978482,-526.78993,-35.298547)"
             style="fill:#b3b3b3">
            <rect
               style="fill:#b3b3b3;fill-opacity:1;stroke:none;stroke-width:0.0197157;stroke-linecap:round;stroke-linejoin:round"
               id="rect2"
               width="1.4499266"
               height="1.4020889"
               x="38.440968"
               y="106.33877"
               transform="matrix(-0.70710678,0.70710678,0.70710678,0.70710678,0,0)" />
            <rect
               style="fill:#b3b3b3;fill-opacity:1;stroke:none;stroke-width:0.0197157;stroke-linecap:round;stroke-linejoin:round"
               id="rect3"
               width="1.4499277"
               height="1.4020889"
               x="38.440968"
               y="107.74084"
               transform="matrix(-0.70710678,0.70710678,0.70710678,0.70710678,0,0)" />
            <rect
               style="fill:#b3b3b3;fill-opacity:1;stroke:none;stroke-width:0.0197157;stroke-linecap:round;stroke-linejoin:round"
               id="rect4"
               width="1.4499277"
               height="1.4020889"
               x="39.890896"
               y="106.33877"
               transform="matrix(-0.70710678,0.70710678,0.70710678,0.70710678,0,0)" />
            <rect
               style="fill:#b3b3b3;fill-opacity:1;stroke:none;stroke-width:0.0197157;stroke-linecap:round;stroke-linejoin:round"
               id="rect5"
               width="1.4499277"
               height="1.4020889"
               x="39.890896"
               y="109.14294"
               transform="matrix(-0.70710678,0.70710678,0.70710678,0.70710678,0,0)" />
            <rect
               style="fill:#b3b3b3;fill-opacity:1;stroke:none;stroke-width:0.0197157;stroke-linecap:round;stroke-linejoin:round"
               id="rect6"
               width="1.4499266"
               height="1.4020889"
               x="38.440968"
               y="109.14294"
               transform="matrix(-0.70710678,0.70710678,0.70710678,0.70710678,0,0)" />
          </g>
          <rect
             style="fill:#ffe6d5;fill-opacity:1;stroke:none;stroke-width:0.105892;stroke-linecap:round;stroke-linejoin:round"
             id="rect7"
             width="7.7875099"
             height="7.5305748"
             x="170.90657"
             y="44.073139"
             transform="matrix(0,1,1,0,0,0)" />
          <rect
             style="fill:#ffd42a;fill-opacity:1;stroke:none;stroke-width:0.105892;stroke-linecap:round;stroke-linejoin:round"
             id="rect8"
             width="7.7875156"
             height="7.5305748"
             x="170.90657"
             y="51.603615"
             transform="matrix(0,1,1,0,0,0)" />
          <rect
             style="fill:#ffe680;fill-opacity:1;stroke:none;stroke-width:0.105892;stroke-linecap:round;stroke-linejoin:round"
             id="rect9"
             width="7.7875156"
             height="7.5305748"
             x="178.69409"
             y="44.073139"
             transform="matrix(0,1,1,0,0,0)" />
          <rect
             style="fill:#ffe680;fill-opacity:1;stroke:none;stroke-width:0.105892;stroke-linecap:round;stroke-linejoin:round"
             id="rect10"
             width="7.7875156"
             height="7.5305748"
             x="178.69409"
             y="59.134251"
             transform="matrix(0,1,1,0,0,0)" />
          <rect
             style="fill:#ffe6d5;fill-opacity:1;stroke:none;stroke-width:0.105892;stroke-linecap:round;stroke-linejoin:round"
             id="rect11"
             width="7.7875099"
             height="7.5305748"
             x="170.90657"
             y="59.134251"
             transform="matrix(0,1,1,0,0,0)" />
        </g>
        <g
           id="g21"
           transform="matrix(0.71661109,-0.19201537,0.19201537,0.71661109,-38.431579,73.797259)">
          <g
             id="g16"
             transform="matrix(-7.2395713,-7.0710679e-8,7.0710679e-8,-7.2395713,417.27367,942.24013)"
             style="fill:#b3b3b3">
            <rect
               style="fill:#b3b3b3;fill-opacity:1;stroke:none;stroke-width:0.0197157;stroke-linecap:round;stroke-linejoin:round"
               id="rect12"
               width="1.4499266"
               height="1.4020889"
               x="38.440968"
               y="106.33877"
               transform="matrix(-0.70710678,0.70710678,0.70710678,0.70710678,0,0)" />
            <rect
               style="fill:#b3b3b3;fill-opacity:1;stroke:none;stroke-width:0.0197157;stroke-linecap:round;stroke-linejoin:round"
               id="rect13"
               width="1.4499277"
               height="1.4020889"
               x="38.440968"
               y="107.74084"
               transform="matrix(-0.70710678,0.70710678,0.70710678,0.70710678,0,0)" />
            <rect
               style="fill:#b3b3b3;fill-opacity:1;stroke:none;stroke-width:0.0197157;stroke-linecap:round;stroke-linejoin:round"
               id="rect14"
               width="1.4499277"
               height="1.4020889"
               x="39.890896"
               y="106.33877"
               transform="matrix(-0.70710678,0.70710678,0.70710678,0.70710678,0,0)" />
            <rect
               style="fill:#b3b3b3;fill-opacity:1;stroke:none;stroke-width:0.0197157;stroke-linecap:round;stroke-linejoin:round"
               id="rect15"
               width="1.4499277"
               height="1.4020889"
               x="39.890896"
               y="109.14294"
               transform="matrix(-0.70710678,0.70710678,0.70710678,0.70710678,0,0)" />
            <rect
               style="fill:#b3b3b3;fill-opacity:1;stroke:none;stroke-width:0.0197157;stroke-linecap:round;stroke-linejoin:round"
               id="rect16"
               width="1.4499266"
               height="1.4020889"
               x="38.440968"
               y="109.14294"
               transform="matrix(-0.70710678,0.70710678,0.70710678,0.70710678,0,0)" />
          </g>
          <rect
             style="fill:#fff6d5;fill-opacity:1;stroke:none;stroke-width:0.142733;stroke-linecap:round;stroke-linejoin:round"
             id="rect17"
             width="10.496847"
             height="10.150522"
             x="-92.621857"
             y="-191.09319"
             transform="matrix(0.70710678,-0.70710678,-0.70710678,-0.70710678,0,0)" />
          <rect
             style="fill:#ff7f2a;fill-opacity:1;stroke:none;stroke-width:0.142733;stroke-linecap:round;stroke-linejoin:round"
             id="rect18"
             width="10.496855"
             height="10.150522"
             x="-92.621857"
             y="-180.94279"
             transform="matrix(0.70710678,-0.70710678,-0.70710678,-0.70710678,0,0)" />
          <rect
             style="fill:#ffb380;fill-opacity:1;stroke:none;stroke-width:0.142733;stroke-linecap:round;stroke-linejoin:round"
             id="rect19"
             width="10.496855"
             height="10.150522"
             x="-82.125"
             y="-191.09319"
             transform="matrix(0.70710678,-0.70710678,-0.70710678,-0.70710678,0,0)" />
          <rect
             style="fill:#ffb380;fill-opacity:1;stroke:none;stroke-width:0.142733;stroke-linecap:round;stroke-linejoin:round"
             id="rect20"
             width="10.496855"
             height="10.150522"
             x="-82.125"
             y="-170.79219"
             transform="matrix(0.70710678,-0.70710678,-0.70710678,-0.70710678,0,0)" />
          <rect
             style="fill:#fff6d5;fill-opacity:1;stroke:none;stroke-width:0.142733;stroke-linecap:round;stroke-linejoin:round"
             id="rect21"
             width="10.496847"
             height="10.150522"
             x="-92.621857"
             y="-170.79219"
             transform="matrix(0.70710678,-0.70710678,-0.70710678,-0.70710678,0,0)" />
        </g>
      </g>
      <text
         xml:space="preserve"
         style="font-weight:bold;font-size:19.7058px;line-height:1;font-family:Sans;-inkscape-font-specification:'Sans, Bold';text-align:start;text-decoration-color:#000000;letter-spacing:-1.58351px;word-spacing:0px;writing-mode:lr-tb;direction:ltr;text-anchor:start;fill:#666666;fill-opacity:1;stroke:none;stroke-width:0.792002;stroke-linecap:round;stroke-linejoin:round"
         x="99.981667"
         y="175.72615"
         id="text22"
         transform="scale(1.0151983,0.98502924)"><tspan
           id="tspan22"
           style="font-style:normal;font-variant:normal;font-weight:normal;font-stretch:normal;font-family:Sans;-inkscape-font-specification:Sans;letter-spacing:-1.58351px;word-spacing:0px;fill:#666666;stroke-width:0.792002"
           x="99.981667"
           y="175.72615">megha</tspan></text>
      <path
         id="path22"
         style="font-weight:bold;font-size:27.2888px;line-height:1;font-family:Sans;-inkscape-font-specification:'Sans, Bold';text-align:start;text-decoration-color:#000000;letter-spacing:-2.19285px;word-spacing:0px;writing-mode:lr-tb;direction:ltr;text-anchor:start;fill:#b3b3b3;fill-opacity:1;stroke:none;stroke-width:0.780144;stroke-linecap:round;stroke-linejoin:round"
         d="m 108.1516,174.39077 c -1.48816,0 -2.66579,0.46581 -3.53281,1.39754 -0.86702,0.93171 -1.3005,2.25795 -1.3005,3.97905 0,0.11688 0.003,0.2311 0.008,0.34442 0.007,-0.004 0.27407,-0.006 0.61459,-0.006 h 1.15163 c -0.004,-0.11122 -0.008,-0.22316 -0.008,-0.33891 0,-1.22935 0.23945,-2.19333 0.71825,-2.89212 0.4788,-0.69879 1.24875,-1.04834 2.30988,-1.04834 1.06112,0 1.83761,0.34955 2.32935,1.04834 0.49174,0.69879 0.73773,1.66277 0.73773,2.89212 0,0.11576 -0.004,0.22769 -0.008,0.33891 h 1.76696 c 0.004,-0.1116 0.007,-0.22377 0.007,-0.33891 0,-1.15171 -0.20674,-2.12223 -0.62084,-2.9116 -0.40116,-0.80232 -0.96436,-1.41057 -1.68903,-1.82467 -0.71173,-0.42704 -1.53982,-0.64032 -2.48448,-0.64032 z m 9.17443,0 c -1.16465,0 -2.10937,0.23907 -2.83404,0.71788 -0.71173,0.4788 -1.06746,1.15827 -1.06746,2.03823 0,0.56938 0.12936,1.0352 0.38817,1.39753 0.25881,0.36234 0.62761,0.67301 1.10641,0.93182 0.38858,0.21004 0.84435,0.42002 1.36078,0.63004 h 3.62434 c -0.14492,-0.11478 -0.30535,-0.22135 -0.48189,-0.31943 -0.46586,-0.25881 -1.0287,-0.51135 -1.68867,-0.75722 -0.65996,-0.25881 -1.19046,-0.47863 -1.59162,-0.6598 -0.38821,-0.19411 -0.66655,-0.38814 -0.83477,-0.58225 -0.16823,-0.20705 -0.25253,-0.45304 -0.25253,-0.73773 0,-0.38822 0.18132,-0.69235 0.54365,-0.91234 0.37528,-0.23292 0.91232,-0.34919 1.6111,-0.34919 0.50469,0 0.9963,0.0647 1.4751,0.19408 0.4788,0.1294 0.93844,0.28455 1.37843,0.46572 l 0.58224,-1.35857 c -0.47879,-0.22 -0.99658,-0.38823 -1.55302,-0.50469 -0.5435,-0.12941 -1.13214,-0.19408 -1.76622,-0.19408 z m -13.97282,6.15181 c 0.0242,0.26426 0.0607,0.51871 0.10991,0.76273 0.0904,-0.002 0.21292,-0.004 0.47748,-0.004 h 1.29719 c -0.0525,-0.23649 -0.0909,-0.48787 -0.11652,-0.7528 h -1.18067 c -0.32545,0 -0.55861,-0.003 -0.58739,-0.006 z m 7.78865,0.006 c -0.0263,0.26493 -0.0658,0.51631 -0.11983,0.7528 h 1.78681 c 0.0463,-0.24062 0.0807,-0.49159 0.10365,-0.7528 z m 6.23967,0 c 0.33532,0.14339 0.61923,0.27859 0.83735,0.40323 0.21112,0.11648 0.38128,0.23307 0.51865,0.34957 h 2.0125 c -0.0611,-0.20794 -0.14708,-0.39637 -0.26024,-0.56313 -0.0427,-0.0652 -0.09,-0.12799 -0.13931,-0.18967 z m -13.81365,1.19095 c 0.0739,0.2653 0.16206,0.51894 0.2687,0.75758 0.0529,-1.1e-4 0.0464,-0.001 0.10402,-0.001 h 1.7416 c -0.12924,-0.22821 -0.23562,-0.48056 -0.32311,-0.7528 h -1.41849 c -0.20651,0 -0.25963,-0.002 -0.37272,-0.004 z m 7.32917,0.004 c -0.0899,0.2722 -0.19883,0.52461 -0.33155,0.7528 h 1.88237 c 0.10271,-0.23639 0.18743,-0.48843 0.25841,-0.7528 z m 8.19557,0 c 0.077,0.16231 0.11615,0.33827 0.11615,0.52858 0,0.0776 -0.008,0.15168 -0.0184,0.22422 h 1.64786 c 0.0127,-0.12261 0.0206,-0.24843 0.0206,-0.37934 0,-0.12994 -0.008,-0.25408 -0.021,-0.37346 z m -15.03182,1.19463 c 0.15907,0.2749 0.33703,0.52575 0.5341,0.75281 h 2.75832 c -0.56132,-0.11572 -1.01388,-0.36733 -1.35932,-0.75286 z m 6.19042,0 c -0.34446,0.38557 -0.79355,0.63714 -1.34902,0.75281 h 2.7903 c 0.20338,-0.22897 0.38161,-0.48022 0.53556,-0.75281 z m 8.79067,0 c -0.0966,0.17279 -0.23381,0.3267 -0.41537,0.45985 -0.18321,0.12824 -0.42178,0.22524 -0.71163,0.29296 h 2.52307 c 0.14603,-0.22585 0.25337,-0.47718 0.32347,-0.75281 z m -5.59824,0.0327 v 0.72009 h 2.09814 c -0.20179,-0.0376 -0.40287,-0.0812 -0.6032,-0.13784 -0.58232,-0.18117 -1.08085,-0.3752 -1.49494,-0.58225 z m -8.40619,1.16155 c 0.18446,0.15912 0.38021,0.30378 0.5907,0.43007 0.72467,0.4141 1.54658,0.62121 2.46536,0.62121 1.2813,0 2.33153,-0.35099 3.15237,-1.05128 z m 8.40619,0 v 0.39148 c 0.40115,0.20705 0.8608,0.36873 1.37842,0.4852 0.53056,0.11647 1.15808,0.1746 1.88275,0.1746 1.26817,0 2.27757,-0.25871 3.02812,-0.77633 0.1223,-0.0844 0.23102,-0.17754 0.3334,-0.27495 z" />
      <text
         xml:space="preserve"
         style="font-style:normal;font-variant:normal;font-weight:normal;font-stretch:normal;font-size:2.98967px;line-height:1;font-family:Sans;-inkscape-font-specification:Sans;text-align:start;text-decoration-color:#000000;letter-spacing:-0.188201px;word-spacing:0px;writing-mode:lr-tb;direction:ltr;text-anchor:start;fill:#666666;fill-opacity:1;stroke:none;stroke-width:0.120158;stroke-linecap:round;stroke-linejoin:round"
         x="-187.16087"
         y="101.5332"
         id="text23"
         transform="rotate(-90)"><tspan
           style="letter-spacing:-0.188201px;fill:#666666;stroke-width:0.120159"
           x="-187.16087"
           y="101.5332"
           id="tspan23">For Intel i686 processors</tspan></text>
      <text
         xml:space="preserve"
         style="font-style:normal;font-variant:normal;font-weight:normal;font-stretch:normal;font-size:4.38542px;line-height:1;font-family:Sans;-inkscape-font-specification:Sans;text-align:start;text-decoration-color:#000000;letter-spacing:-0.3524px;word-spacing:0px;writing-mode:lr-tb;direction:ltr;text-anchor:start;fill:#b3b3b3;fill-opacity:1;stroke:none;stroke-width:0.176255;stroke-linecap:round;stroke-linejoin:round"
         x="103.00432"
         y="160.66757"
         id="text24"><tspan
           id="tspan24"
           style="fill:#b3b3b3;stroke-width:0.176256"
           x="103.00432"
           y="160.66757">32 bits</tspan></text>
    </g>
  </g>
</svg>
